<svg xmlns="http://www.w3.org/2000/svg" style="display:none">
  <!-- SVG_1 -->
  <symbol id="SVG_1" viewBox="0 0 64 64">
    <rect width="64" height="64" rx="8" fill="#F4F4FD"/>
    <path d="M32 20C27.6 20 24 23.6 24 28C24 32.4 27.6 36 32 36C36.4 36 40 32.4 40 28C40 23.6 36.4 20 32 20ZM32 34C28.68 34 26 31.32 26 28C26 24.68 28.68 22 32 22C35.32 22 38 24.68 38 28C38 31.32 35.32 34 32 34Z" fill="#2E2F42"/>
    <circle cx="32" cy="28" r="4" fill="#4D5AE5"/>
  </symbol>
  <!-- SVG_2 -->
  <symbol id="SVG_2" viewBox="0 0 64 64">
    <rect width="64" height="64" rx="8" fill="#F4F4FD"/>
    <path d="M44 40H20V38H44V40ZM44 34H20V32H44V34ZM44 28H20V26H44V28Z" fill="#2E2F42"/>
    <rect x="28" y="24" width="8" height="16" fill="#4D5AE5"/>
  </symbol>
  <!-- SVG_3 -->
  <symbol id="SVG_3" viewBox="0 0 64 64">
    <rect width="64" height="64" rx="8" fill="#F4F4FD"/>
    <circle cx="32" cy="32" r="12" fill="#2E2F42"/>
    <path d="M32 24C35.3137 24 38 26.6863 38 30C38 33.3137 35.3137 36 32 36C28.6863 36 26 33.3137 26 30C26 26.6863 28.6863 24 32 24ZM32 34C34.2091 34 36 32.2091 36 30C36 27.7909 34.2091 26 32 26C29.7909 26 28 27.7909 28 30C28 32.2091 29.7909 34 32 34Z" fill="#4D5AE5"/>
  </symbol>
  <!-- SVG_4 -->
  <symbol id="SVG_4" viewBox="0 0 64 64">
    <rect width="64" height="64" rx="8" fill="#F4F4FD"/>
    <rect x="24" y="24" width="16" height="16" fill="#2E2F42"/>
    <circle cx="32" cy="32" r="6" fill="#4D5AE5"/>
  </symbol>
  <!-- SVG_5 Instagram -->
  <symbol id="SVG_5" viewBox="0 0 24 24">
    <path d="M12 2.163c3.204 0 3.584.012 4.85.07 1.17.056 1.97.24 2.423.415.54.208.927.457 1.336.866.41.41.658.797.866 1.336.175.454.359 1.253.415 2.423.058 1.266.07 1.646.07 4.85s-.012 3.584-.07 4.85c-.056 1.17-.24 1.97-.415 2.423-.208.54-.457.927-.866 1.336-.41.41-.797.658-1.336.866-.454.175-1.253.359-2.423.415-1.266.058-1.646.07-4.85.07s-3.584-.012-4.85-.07c-1.17-.056-1.97-.24-2.423-.415-.54-.208-.927-.457-1.336-.866-.41-.41-.658-.797-.866-1.336-.175-.454-.359-1.253-.415-2.423C2.175 15.747 2.163 15.367 2.163 12s.012-3.584.07-4.85c.056-1.17.24-1.97.415-2.423.208-.54.457-.927.866-1.336.41-.41.797-.658 1.336-.866.454-.175 1.253-.359 2.423-.415C8.416 2.175 8.796 2.163 12 2.163zm0-2.163C8.741 0 8.332.014 7.052.072 5.775.13 4.802.302 4.003.563c-.8.26-1.43.584-2.06 1.214-.63.63-.954 1.26-1.214 2.06C.302 4.802.13 5.775.072 7.052.014 8.332 0 8.741 0 12c0 3.259.014 3.668.072 4.948.058 1.277.23 2.25.491 3.05.26.8.584 1.43 1.214 2.06.63.63 1.26.954 2.06 1.214.8.26 1.773.433 3.05.491C8.332 23.986 8.741 24 12 24s3.668-.014 4.948-.072c1.277-.058 2.25-.23 3.05-.491.8-.26 1.43-.584 2.06-1.214.63-.63.954-1.26 1.214-2.06.26-.8.433-1.773.491-3.05C23.986 15.668 24 15.259 24 12c0-3.259-.014-3.668-.072-4.948-.058-1.277-.23-2.25-.491-3.05-.26-.8-.584-1.43-1.214-2.06-.63-.63-1.26-.954-2.06-1.214-.8-.26-1.773-.433-3.05-.491C15.668.014 15.259 0 12 0zm0 5.838a6.162 6.162 0 1 0 0 12.324 6.162 6.162 0 0 0 0-12.324zm0 10.162a4 4 0 1 1 0-8 4 4 0 0 1 0 8zm6.406-11.845a1.44 1.44 0 1 0 0 2.88 1.44 1.44 0 0 0 0-2.88z"/>
  </symbol>
  <!-- SVG_6 Twitter -->
  <symbol id="SVG_6" viewBox="0 0 24 24">
    <path d="M23.954 4.569c-.885.389-1.83.654-2.825.775 1.014-.608 1.794-1.574 2.163-2.723-.949.564-2.005.974-3.127 1.195-.897-.959-2.178-1.559-3.594-1.559-3.179 0-5.515 2.966-4.797 6.045-4.091-.205-7.719-2.166-10.148-5.144-1.29 2.213-.669 5.108 1.523 6.574-.806-.026-1.566-.247-2.229-.616v.062c0 2.385 1.693 4.374 4.194 4.827-.693.188-1.452.232-2.224.084.627 1.956 2.444 3.377 4.6 3.417-2.07 1.623-4.678 2.348-7.29 2.034 2.179 1.397 4.768 2.215 7.548 2.215 9.142 0 14.307-7.721 13.995-14.646.962-.689 1.797-1.56 2.457-2.549z"/>
  </symbol>
  <!-- SVG_7 Facebook -->
  <symbol id="SVG_7" viewBox="0 0 24 24">
    <path d="M22.675 0h-21.35C.595 0 0 .593 0 1.326v21.348C0 23.406.595 24 1.326 24H12.82v-9.294H9.692V11.01h3.128V8.413c0-3.1 1.894-4.788 4.659-4.788 1.325 0 2.463.099 2.797.143v3.24h-1.918c-1.504 0-1.797.715-1.797 1.763v2.314h3.587l-.467 3.696h-3.12V24h6.116C23.406 24 24 23.406 24 22.674V1.326C24 .593 23.406 0 22.675 0"/>
  </symbol>
  <!-- SVG_8 LinkedIn -->
  <symbol id="SVG_8" viewBox="0 0 24 24">
    <path d="M20.447 20.452H17.21V14.795c0-1.343-.027-3.073-1.875-3.073-1.876 0-2.164 1.462-2.164 2.974v5.756H9.029V9h3.104v1.561h.045c.432-.82 1.49-1.687 3.068-1.687 3.282 0 3.884 2.159 3.884 4.971v6.607zM5.337 7.433a1.816 1.816 0 1 1 0-3.632 1.816 1.816 0 0 1 0 3.632zm1.772 13.019H3.564V9h3.545v11.452zM22.225 0H1.771C.792 0 0 .771 0 1.723v20.549C0 23.229.792 24 1.771 24h20.451C23.2 24 24 23.229 24 22.271V1.723C24 .771 23.2 0 22.225 0z"/>
  </symbol>
</svg>
